# xmcd
#
# Track frame offsets:
#	150
#	63745
#	107838
#	143318
#	155190
#	187961
#	222033
#
# Disc length: 3584 seconds
#
# Revision: 0
# Processed by: cddbd v1.5.2PL0 Copyright (c) Steve Scherf et al.
# Submitted via: audiograbber 1.83.01
#
DISCID=600dfe07
DTITLE=Grateful Dead - 93-01-25 Oakland Coliseum Arena, Oakland CA
DYEAR=1900
DGENRE=
TTITLE0=Shakedown Street
TTITLE1=The Same Thing
TTITLE2=Althea
TTITLE3=Mama Tried
TTITLE4=Maggie's Farm
TTITLE5=Loose Lucy
TTITLE6=The Music Never Stopped
EXTD=
EXTT0=
EXTT1=
EXTT2=
EXTT3=
EXTT4=
EXTT5=
EXTT6=
PLAYORDER=
